<?xml version="1.0" encoding="UTF-8"?><svg xmlns="http://www.w3.org/2000/svg" xmlns:xlink="http://www.w3.org/1999/xlink" width="375pt" zoomAndPan="magnify" viewBox="0 0 375 374.999991" height="374.999991pt" preserveAspectRatio="xMidYMid meet" version="1.2"><defs><g/><clipPath xml:id="clip1" id="clip1"><path d="M 151.757812 155.277344 L 223 155.277344 L 223 225 L 151.757812 225 Z M 151.757812 155.277344 "/></clipPath></defs><g xml:id="surface1" id="surface1"><path style=" stroke:none;fill-rule:nonzero;fill:rgb(52.549744%,88.238525%,98.81897%);fill-opacity:1;" d="M 177.65625 224.835938 C 177.65625 224.832031 178.792969 223.179688 179.929688 221.191406 C 180.503906 220.195312 181.074219 219.117188 181.507812 218.109375 C 181.722656 217.605469 181.90625 217.117188 182.035156 216.667969 C 182.164062 216.214844 182.242188 215.796875 182.242188 215.414062 C 182.242188 215.195312 182.214844 214.988281 182.148438 214.792969 C 182.082031 214.597656 181.96875 214.417969 181.808594 214.277344 C 181.496094 214.011719 181.128906 213.839844 180.738281 213.734375 C 180.34375 213.632812 179.921875 213.59375 179.484375 213.59375 C 178.589844 213.59375 177.613281 213.753906 176.640625 213.910156 C 175.671875 214.0625 174.707031 214.214844 173.867188 214.214844 C 173.683594 214.214844 173.503906 214.207031 173.332031 214.191406 C 172.726562 214.136719 171.984375 213.910156 171.199219 213.542969 C 170.023438 213 168.757812 212.152344 167.660156 211.175781 C 166.558594 210.203125 165.628906 209.101562 165.113281 208.066406 C 164.414062 206.667969 163.558594 205.175781 162.882812 203.820312 C 162.542969 203.140625 162.253906 202.5 162.046875 201.925781 C 161.839844 201.355469 161.726562 200.855469 161.726562 200.480469 C 161.726562 200.398438 161.734375 200.320312 161.742188 200.253906 C 161.765625 200.085938 161.832031 199.878906 161.9375 199.640625 C 162.117188 199.222656 162.417969 198.722656 162.777344 198.179688 C 163.320312 197.367188 164 196.457031 164.636719 195.535156 C 165.273438 194.613281 165.871094 193.683594 166.25 192.804688 C 166.53125 192.140625 166.796875 191.324219 167.042969 190.4375 C 167.410156 189.105469 167.742188 187.617188 168.039062 186.28125 C 168.335938 184.941406 168.597656 183.746094 168.816406 183.035156 C 169.460938 180.925781 170.730469 179.34375 171.980469 178.128906 C 172.605469 177.519531 173.226562 177.003906 173.761719 176.554688 C 174.296875 176.105469 174.746094 175.734375 175.042969 175.375 L 174.757812 175.144531 L 175.011719 175.40625 C 175.5625 174.882812 175.921875 174.3125 176.128906 173.71875 C 176.339844 173.125 176.40625 172.515625 176.40625 171.90625 C 176.40625 170.695312 176.152344 169.464844 176.152344 168.242188 C 176.15625 167.382812 176.273438 166.539062 176.671875 165.6875 C 177.058594 164.855469 177.074219 163.941406 177.082031 163.242188 C 177.082031 162.898438 177.078125 162.597656 177.101562 162.421875 C 177.105469 162.378906 177.113281 162.34375 177.121094 162.320312 L 177.128906 162.285156 L 177.132812 162.285156 L 177.011719 162.222656 L 177.09375 162.324219 C 177.121094 162.304688 177.128906 162.285156 177.132812 162.285156 L 177.011719 162.222656 L 177.09375 162.324219 L 176.972656 162.167969 L 177 162.367188 C 177.03125 162.363281 177.070312 162.34375 177.09375 162.324219 L 176.972656 162.167969 L 177 162.367188 C 177.046875 162.359375 177.097656 162.355469 177.152344 162.355469 C 177.480469 162.351562 177.921875 162.5 178.410156 162.757812 C 179.152344 163.144531 179.996094 163.765625 180.84375 164.351562 C 181.695312 164.9375 182.542969 165.492188 183.363281 165.75 C 183.554688 165.808594 183.761719 165.703125 183.820312 165.507812 C 183.878906 165.316406 183.773438 165.113281 183.582031 165.050781 C 183.136719 164.914062 182.621094 164.640625 182.082031 164.296875 C 181.273438 163.789062 180.410156 163.132812 179.578125 162.597656 C 179.160156 162.332031 178.75 162.09375 178.347656 161.917969 C 177.941406 161.742188 177.546875 161.625 177.152344 161.625 C 177.066406 161.625 176.980469 161.632812 176.894531 161.644531 C 176.804688 161.65625 176.707031 161.695312 176.636719 161.753906 C 176.570312 161.808594 176.523438 161.875 176.488281 161.933594 C 176.429688 162.050781 176.402344 162.160156 176.386719 162.273438 C 176.355469 162.472656 176.355469 162.691406 176.351562 162.9375 C 176.351562 163.304688 176.355469 163.726562 176.3125 164.152344 C 176.273438 164.578125 176.183594 165.003906 176.011719 165.378906 C 175.554688 166.347656 175.425781 167.320312 175.425781 168.242188 C 175.425781 169.558594 175.679688 170.796875 175.675781 171.90625 C 175.675781 172.464844 175.617188 172.984375 175.441406 173.472656 C 175.269531 173.960938 174.984375 174.425781 174.507812 174.878906 L 174.476562 174.910156 C 174.257812 175.179688 173.828125 175.550781 173.292969 175.996094 C 172.492188 176.664062 171.460938 177.523438 170.496094 178.632812 C 169.535156 179.746094 168.636719 181.121094 168.117188 182.820312 C 167.960938 183.332031 167.792969 184.035156 167.613281 184.839844 C 167.335938 186.050781 167.03125 187.503906 166.6875 188.890625 C 166.347656 190.273438 165.972656 191.59375 165.578125 192.515625 C 165.058594 193.730469 164 195.183594 163.03125 196.539062 C 162.546875 197.214844 162.085938 197.871094 161.726562 198.476562 C 161.546875 198.78125 161.390625 199.070312 161.269531 199.347656 C 161.148438 199.625 161.058594 199.890625 161.023438 200.148438 C 161.003906 200.257812 161 200.367188 161 200.480469 C 161 200.992188 161.140625 201.558594 161.359375 202.175781 C 161.691406 203.097656 162.210938 204.132812 162.773438 205.199219 C 163.335938 206.265625 163.945312 207.363281 164.460938 208.394531 C 165.234375 209.933594 166.726562 211.476562 168.371094 212.691406 C 169.195312 213.296875 170.058594 213.816406 170.894531 214.207031 C 171.730469 214.59375 172.539062 214.851562 173.265625 214.917969 C 173.464844 214.9375 173.664062 214.945312 173.867188 214.945312 C 174.792969 214.945312 175.785156 214.785156 176.757812 214.628906 C 177.726562 214.472656 178.675781 214.324219 179.484375 214.324219 C 179.878906 214.324219 180.242188 214.359375 180.550781 214.441406 C 180.859375 214.523438 181.121094 214.652344 181.332031 214.832031 C 181.386719 214.878906 181.425781 214.9375 181.460938 215.03125 C 181.492188 215.125 181.511719 215.253906 181.511719 215.414062 C 181.511719 215.691406 181.449219 216.054688 181.332031 216.464844 C 181.125 217.183594 180.753906 218.054688 180.316406 218.9375 C 179.652344 220.269531 178.835938 221.644531 178.1875 222.683594 C 177.859375 223.203125 177.578125 223.636719 177.375 223.941406 C 177.273438 224.097656 177.191406 224.21875 177.136719 224.296875 C 177.082031 224.378906 177.050781 224.421875 177.050781 224.421875 C 176.9375 224.589844 176.980469 224.816406 177.148438 224.929688 C 177.3125 225.042969 177.539062 225.003906 177.65625 224.835938 "/><path style=" stroke:none;fill-rule:nonzero;fill:rgb(52.549744%,88.238525%,98.81897%);fill-opacity:1;" d="M 183.480469 170.859375 C 183.480469 170.859375 183.441406 170.492188 183.398438 169.84375 C 183.359375 169.195312 183.308594 168.265625 183.308594 167.152344 C 183.304688 166.59375 183.308594 165.988281 183.339844 165.347656 C 183.371094 164.707031 183.410156 164.03125 183.507812 163.328125 C 183.558594 162.976562 183.617188 162.621094 183.707031 162.257812 C 183.804688 161.890625 183.890625 161.523438 184.164062 161.132812 C 184.234375 161.039062 184.324219 160.9375 184.460938 160.855469 C 184.492188 160.835938 184.53125 160.816406 184.570312 160.800781 L 184.597656 160.789062 L 184.613281 160.78125 C 184.582031 160.789062 184.675781 160.765625 184.667969 160.769531 L 184.699219 160.761719 L 184.769531 160.746094 C 184.789062 160.742188 184.808594 160.738281 184.855469 160.738281 C 184.929688 160.734375 185.015625 160.734375 185.085938 160.742188 L 185.261719 160.773438 C 185.375 160.804688 185.480469 160.839844 185.578125 160.882812 C 185.96875 161.054688 186.289062 161.285156 186.597656 161.519531 C 187.199219 162.003906 187.726562 162.539062 188.234375 163.078125 C 188.738281 163.617188 189.199219 164.179688 189.640625 164.722656 C 190.078125 165.261719 190.484375 165.804688 190.859375 166.324219 C 191.046875 166.582031 191.226562 166.835938 191.398438 167.085938 C 191.480469 167.210938 191.5625 167.332031 191.644531 167.453125 L 191.703125 167.542969 L 191.71875 167.566406 L 191.730469 167.578125 L 191.761719 167.625 C 191.800781 167.679688 191.84375 167.738281 191.882812 167.792969 C 192.199219 168.207031 192.578125 168.53125 192.949219 168.765625 C 193.320312 169 193.671875 169.164062 193.972656 169.273438 C 194.574219 169.496094 194.949219 169.546875 194.949219 169.546875 C 194.949219 169.546875 194.855469 169.546875 194.679688 169.53125 C 194.507812 169.515625 194.25 169.492188 193.929688 169.414062 C 193.613281 169.335938 193.226562 169.21875 192.8125 169.007812 C 192.394531 168.800781 191.949219 168.496094 191.554688 168.054688 C 191.511719 168 191.464844 167.945312 191.417969 167.894531 L 191.382812 167.851562 L 191.34375 167.804688 L 191.277344 167.71875 C 191.1875 167.605469 191.097656 167.492188 191.003906 167.375 C 190.816406 167.140625 190.625 166.902344 190.425781 166.65625 C 190.023438 166.164062 189.59375 165.65625 189.144531 165.132812 C 188.695312 164.609375 188.214844 164.085938 187.722656 163.5625 C 187.226562 163.042969 186.703125 162.53125 186.144531 162.09375 C 185.867188 161.875 185.582031 161.671875 185.296875 161.542969 C 185.226562 161.511719 185.15625 161.488281 185.089844 161.46875 L 184.996094 161.449219 L 184.953125 161.441406 C 184.953125 161.433594 184.925781 161.4375 184.902344 161.445312 L 184.835938 161.457031 L 184.804688 161.464844 C 184.789062 161.464844 184.878906 161.445312 184.839844 161.453125 L 184.824219 161.460938 C 184.800781 161.472656 184.761719 161.507812 184.726562 161.558594 C 184.570312 161.765625 184.453125 162.109375 184.363281 162.425781 C 184.269531 162.753906 184.203125 163.09375 184.144531 163.429688 C 183.914062 164.773438 183.8125 166.066406 183.722656 167.167969 C 183.640625 168.269531 183.582031 169.195312 183.542969 169.84375 C 183.503906 170.492188 183.480469 170.859375 183.480469 170.859375 "/><path style=" stroke:none;fill-rule:nonzero;fill:rgb(52.549744%,88.238525%,98.81897%);fill-opacity:1;" d="M 191.527344 168.0625 C 191.527344 168.0625 191.554688 168.066406 191.609375 168.066406 C 192.015625 168.089844 193.894531 168.199219 196.035156 168.53125 C 197.101562 168.699219 198.234375 168.917969 199.277344 169.210938 C 200.316406 169.503906 201.269531 169.867188 201.960938 170.300781 C 202.320312 170.523438 202.753906 170.882812 203.222656 171.34375 C 204.042969 172.152344 204.980469 173.277344 205.925781 174.554688 C 207.339844 176.464844 208.773438 178.722656 209.890625 180.789062 C 210.445312 181.820312 210.921875 182.808594 211.28125 183.675781 C 211.636719 184.546875 211.867188 185.300781 211.9375 185.847656 C 212.058594 186.742188 212.199219 188.371094 212.382812 190.398438 C 212.65625 193.445312 213.023438 197.414062 213.546875 201.257812 C 214.074219 205.109375 214.757812 208.832031 215.6875 211.4375 C 215.753906 211.628906 215.960938 211.726562 216.152344 211.660156 C 216.34375 211.589844 216.441406 211.382812 216.375 211.191406 C 215.777344 209.523438 215.273438 207.316406 214.847656 204.902344 C 214.214844 201.28125 213.757812 197.179688 213.417969 193.644531 C 213.246094 191.875 213.101562 190.25 212.980469 188.890625 C 212.859375 187.535156 212.753906 186.449219 212.660156 185.75 C 212.59375 185.253906 212.433594 184.675781 212.195312 184.027344 C 211.371094 181.765625 209.628906 178.648438 207.738281 175.855469 C 206.792969 174.460938 205.8125 173.148438 204.886719 172.070312 C 203.960938 170.992188 203.097656 170.148438 202.347656 169.679688 C 201.507812 169.160156 200.421875 168.761719 199.257812 168.449219 C 197.511719 167.980469 195.59375 167.703125 194.105469 167.542969 C 192.617188 167.378906 191.5625 167.335938 191.558594 167.335938 C 191.355469 167.324219 191.1875 167.480469 191.175781 167.683594 C 191.167969 167.882812 191.324219 168.054688 191.527344 168.0625 "/><path style=" stroke:none;fill-rule:nonzero;fill:rgb(52.549744%,88.238525%,98.81897%);fill-opacity:1;" d="M 163.105469 197.207031 C 164.066406 198.839844 164.195312 200.269531 163.53125 202.023438 C 163.445312 202.25 163.089844 202.738281 163.1875 203.015625 C 163.457031 203.773438 163.257812 204.503906 163.054688 205.246094 C 162.996094 205.46875 163.277344 205.554688 163.402344 205.394531 C 163.886719 204.761719 164.003906 204.0625 163.921875 203.277344 C 163.898438 203.058594 163.953125 202.796875 163.832031 203.03125 C 164.027344 202.652344 164.210938 202.265625 164.371094 201.867188 C 165.113281 200.042969 164.625 198.457031 163.347656 197.019531 C 163.226562 196.886719 163.019531 197.058594 163.105469 197.207031 "/><path style=" stroke:none;fill-rule:nonzero;fill:rgb(52.549744%,88.238525%,98.81897%);fill-opacity:1;" d="M 188.3125 169.828125 C 188.007812 169.492188 187.714844 169.324219 187.257812 169.339844 C 187.15625 169.34375 187.039062 169.433594 187.050781 169.546875 C 187.0625 169.640625 187.058594 169.734375 187.050781 169.828125 C 186.785156 169.667969 186.507812 169.574219 186.164062 169.585938 C 186.054688 169.585938 185.949219 169.675781 185.957031 169.789062 C 185.957031 169.839844 185.945312 169.886719 185.941406 169.933594 C 185.742188 169.804688 185.527344 169.738281 185.25 169.734375 C 185.15625 169.730469 185.070312 169.816406 185.070312 169.910156 C 185.074219 170.019531 185.078125 170.117188 185.082031 170.214844 C 184.9375 170.109375 184.78125 170.019531 184.605469 169.929688 C 184.570312 169.914062 184.535156 169.933594 184.53125 169.972656 C 184.511719 170.15625 184.496094 170.335938 184.484375 170.519531 C 184.480469 170.566406 184.558594 170.566406 184.554688 170.519531 C 184.542969 169.6875 184.984375 170.328125 185.144531 170.582031 C 185.207031 170.683594 185.382812 170.648438 185.375 170.519531 C 185.371094 170.390625 185.390625 170.261719 185.40625 170.136719 C 185.617188 170.199219 185.800781 170.308594 185.957031 170.484375 C 186.054688 170.59375 186.269531 170.542969 186.300781 170.390625 C 186.324219 170.253906 186.34375 170.136719 186.355469 170.011719 C 186.660156 170.050781 186.898438 170.195312 187.152344 170.394531 C 187.273438 170.484375 187.476562 170.363281 187.460938 170.214844 C 187.445312 170.066406 187.457031 169.917969 187.460938 169.769531 C 187.699219 169.8125 187.886719 169.925781 188.023438 170.117188 C 188.203125 170.3125 188.492188 170.023438 188.3125 169.828125 "/><path style=" stroke:none;fill-rule:nonzero;fill:rgb(52.549744%,88.238525%,98.81897%);fill-opacity:1;" d="M 188.160156 166.726562 C 187.214844 165.214844 185.703125 163.914062 184.976562 162.289062 C 184.960938 162.253906 184.894531 162.277344 184.910156 162.316406 C 185.371094 163.488281 185.851562 164.539062 186.625 165.539062 C 187.804688 167.0625 189.054688 168.59375 189.25 170.582031 C 189.265625 170.753906 189.527344 170.761719 189.523438 170.582031 C 189.46875 169.140625 188.914062 167.9375 188.160156 166.726562 "/><path style=" stroke:none;fill-rule:nonzero;fill:rgb(52.549744%,88.238525%,98.81897%);fill-opacity:1;" d="M 181.484375 167.738281 C 180.550781 167.058594 179.464844 166.808594 178.769531 165.8125 C 178.226562 165.035156 177.949219 164.023438 177.4375 163.203125 C 177.414062 163.160156 177.351562 163.195312 177.375 163.238281 C 178.019531 164.5 178.101562 165.847656 179.191406 166.851562 C 179.675781 167.300781 180.378906 167.554688 180.9375 167.90625 C 182.0625 168.613281 182.605469 169.539062 182.960938 170.789062 C 182.988281 170.886719 183.132812 170.890625 183.160156 170.789062 C 183.507812 169.460938 182.472656 168.464844 181.484375 167.738281 "/><g clip-rule="nonzero" clip-path="url(#clip1)"><path style=" stroke:none;fill-rule:nonzero;fill:rgb(52.549744%,88.238525%,98.81897%);fill-opacity:1;" d="M 177.457031 224.28125 C 163.046875 220.007812 152.53125 206.664062 152.53125 190.863281 C 152.53125 181.238281 156.429688 172.527344 162.734375 166.222656 C 169.039062 159.914062 177.746094 156.015625 187.371094 156.015625 C 196.992188 156.015625 205.699219 159.914062 212.003906 166.222656 C 218.308594 172.527344 222.207031 181.238281 222.207031 190.863281 C 222.207031 198.410156 219.808594 205.394531 215.734375 211.101562 L 216.328125 211.527344 C 220.488281 205.703125 222.9375 198.566406 222.9375 190.863281 C 222.9375 171.210938 207.011719 155.285156 187.371094 155.285156 C 167.726562 155.285156 151.800781 171.210938 151.800781 190.863281 C 151.800781 206.996094 162.535156 220.621094 177.25 224.980469 L 177.457031 224.28125 "/></g><g style="fill:rgb(50.979614%,54.508972%,72.158813%);fill-opacity:1;"><g transform="translate(5.374854, 221.262847)"><path style="stroke:none;" d="M 25.4375 0 L 18.796875 0 L 18.796875 -51.21875 L 0.703125 -51.21875 L 0.703125 -57.109375 L 43.515625 -57.109375 L 43.515625 -51.21875 L 25.4375 -51.21875 Z M 25.4375 0 "/></g></g><g style="fill:rgb(50.979614%,54.508972%,72.158813%);fill-opacity:1;"><g transform="translate(49.628341, 221.262847)"><path style="stroke:none;" d="M 43.75 0 L 36.640625 -18.171875 L 13.75 -18.171875 L 6.71875 0 L 0 0 L 22.578125 -57.34375 L 28.171875 -57.34375 L 50.625 0 Z M 34.578125 -24.140625 L 27.9375 -41.84375 C 27.070312 -44.082031 26.1875 -46.828125 25.28125 -50.078125 C 24.707031 -47.578125 23.882812 -44.832031 22.8125 -41.84375 L 16.09375 -24.140625 Z M 34.578125 -24.140625 "/></g></g><g style="fill:rgb(50.979614%,54.508972%,72.158813%);fill-opacity:1;"><g transform="translate(100.248394, 221.262847)"><path style="stroke:none;" d="M 32.3125 -52 C 26.03125 -52 21.070312 -49.90625 17.4375 -45.71875 C 13.8125 -41.539062 12 -35.820312 12 -28.5625 C 12 -21.082031 13.75 -15.304688 17.25 -11.234375 C 20.75 -7.160156 25.742188 -5.125 32.234375 -5.125 C 36.210938 -5.125 40.753906 -5.835938 45.859375 -7.265625 L 45.859375 -1.453125 C 41.898438 0.0351562 37.019531 0.78125 31.21875 0.78125 C 22.800781 0.78125 16.304688 -1.769531 11.734375 -6.875 C 7.171875 -11.976562 4.890625 -19.234375 4.890625 -28.640625 C 4.890625 -34.523438 5.988281 -39.679688 8.1875 -44.109375 C 10.382812 -48.535156 13.5625 -51.945312 17.71875 -54.34375 C 21.875 -56.738281 26.765625 -57.9375 32.390625 -57.9375 C 38.378906 -57.9375 43.613281 -56.84375 48.09375 -54.65625 L 45.28125 -48.953125 C 40.957031 -50.984375 36.632812 -52 32.3125 -52 Z M 32.3125 -52 "/></g></g><g style="fill:rgb(50.979614%,54.508972%,72.158813%);fill-opacity:1;"><g transform="translate(223.24373, 218.501938)"><path style="stroke:none;" d="M 32.3125 -52 C 26.03125 -52 21.070312 -49.90625 17.4375 -45.71875 C 13.8125 -41.539062 12 -35.820312 12 -28.5625 C 12 -21.082031 13.75 -15.304688 17.25 -11.234375 C 20.75 -7.160156 25.742188 -5.125 32.234375 -5.125 C 36.210938 -5.125 40.753906 -5.835938 45.859375 -7.265625 L 45.859375 -1.453125 C 41.898438 0.0351562 37.019531 0.78125 31.21875 0.78125 C 22.800781 0.78125 16.304688 -1.769531 11.734375 -6.875 C 7.171875 -11.976562 4.890625 -19.234375 4.890625 -28.640625 C 4.890625 -34.523438 5.988281 -39.679688 8.1875 -44.109375 C 10.382812 -48.535156 13.5625 -51.945312 17.71875 -54.34375 C 21.875 -56.738281 26.765625 -57.9375 32.390625 -57.9375 C 38.378906 -57.9375 43.613281 -56.84375 48.09375 -54.65625 L 45.28125 -48.953125 C 40.957031 -50.984375 36.632812 -52 32.3125 -52 Z M 32.3125 -52 "/></g></g><g style="fill:rgb(50.979614%,54.508972%,72.158813%);fill-opacity:1;"><g transform="translate(273.707548, 218.501938)"><path style="stroke:none;" d="M 43.75 0 L 36.640625 -18.171875 L 13.75 -18.171875 L 6.71875 0 L 0 0 L 22.578125 -57.34375 L 28.171875 -57.34375 L 50.625 0 Z M 34.578125 -24.140625 L 27.9375 -41.84375 C 27.070312 -44.082031 26.1875 -46.828125 25.28125 -50.078125 C 24.707031 -47.578125 23.882812 -44.832031 22.8125 -41.84375 L 16.09375 -24.140625 Z M 34.578125 -24.140625 "/></g></g><g style="fill:rgb(50.979614%,54.508972%,72.158813%);fill-opacity:1;"><g transform="translate(324.3276, 218.501938)"><path style="stroke:none;" d="M 25.4375 0 L 18.796875 0 L 18.796875 -51.21875 L 0.703125 -51.21875 L 0.703125 -57.109375 L 43.515625 -57.109375 L 43.515625 -51.21875 L 25.4375 -51.21875 Z M 25.4375 0 "/></g></g><g style="fill:rgb(100%,100%,100%);fill-opacity:1;"><g transform="translate(94.599608, 245.161287)"><path style="stroke:none;" d="M 9.84375 0 L 8.25 -4.09375 L 3.09375 -4.09375 L 1.515625 0 L 0 0 L 5.078125 -12.90625 L 6.34375 -12.90625 L 11.390625 0 Z M 7.78125 -5.4375 L 6.28125 -9.40625 C 6.09375 -9.914062 5.894531 -10.535156 5.6875 -11.265625 C 5.5625 -10.703125 5.378906 -10.082031 5.140625 -9.40625 L 3.625 -5.4375 Z M 7.78125 -5.4375 "/></g><g transform="translate(105.990232, 245.161287)"><path style="stroke:none;" d=""/></g><g transform="translate(110.666013, 245.161287)"><path style="stroke:none;" d="M 9.921875 -9.109375 C 9.921875 -7.804688 9.472656 -6.800781 8.578125 -6.09375 C 7.691406 -5.394531 6.421875 -5.046875 4.765625 -5.046875 L 3.265625 -5.046875 L 3.265625 0 L 1.765625 0 L 1.765625 -12.84375 L 5.09375 -12.84375 C 8.3125 -12.84375 9.921875 -11.597656 9.921875 -9.109375 Z M 3.265625 -6.34375 L 4.609375 -6.34375 C 5.929688 -6.34375 6.890625 -6.554688 7.484375 -6.984375 C 8.078125 -7.410156 8.375 -8.09375 8.375 -9.03125 C 8.375 -9.882812 8.09375 -10.519531 7.53125 -10.9375 C 6.976562 -11.351562 6.113281 -11.5625 4.9375 -11.5625 L 3.265625 -11.5625 Z M 3.265625 -6.34375 "/></g><g transform="translate(121.502927, 245.161287)"><path style="stroke:none;" d="M 7.46875 0 L 7.1875 -1.375 L 7.109375 -1.375 C 6.628906 -0.769531 6.148438 -0.359375 5.671875 -0.140625 C 5.191406 0.0664062 4.597656 0.171875 3.890625 0.171875 C 2.929688 0.171875 2.179688 -0.0703125 1.640625 -0.5625 C 1.097656 -1.050781 0.828125 -1.75 0.828125 -2.65625 C 0.828125 -4.601562 2.382812 -5.625 5.5 -5.71875 L 7.125 -5.78125 L 7.125 -6.375 C 7.125 -7.125 6.960938 -7.679688 6.640625 -8.046875 C 6.316406 -8.410156 5.796875 -8.59375 5.078125 -8.59375 C 4.273438 -8.59375 3.367188 -8.34375 2.359375 -7.84375 L 1.90625 -8.96875 C 2.382812 -9.226562 2.90625 -9.429688 3.46875 -9.578125 C 4.03125 -9.722656 4.597656 -9.796875 5.171875 -9.796875 C 6.316406 -9.796875 7.164062 -9.539062 7.71875 -9.03125 C 8.269531 -8.519531 8.546875 -7.703125 8.546875 -6.578125 L 8.546875 0 Z M 4.171875 -1.03125 C 5.078125 -1.03125 5.789062 -1.273438 6.3125 -1.765625 C 6.832031 -2.265625 7.09375 -2.96875 7.09375 -3.875 L 7.09375 -4.734375 L 5.640625 -4.671875 C 4.472656 -4.628906 3.632812 -4.445312 3.125 -4.125 C 2.613281 -3.8125 2.359375 -3.316406 2.359375 -2.640625 C 2.359375 -2.117188 2.515625 -1.71875 2.828125 -1.4375 C 3.148438 -1.164062 3.597656 -1.03125 4.171875 -1.03125 Z M 4.171875 -1.03125 "/></g><g transform="translate(131.513668, 245.161287)"><path style="stroke:none;" d="M 3 0 L 1.546875 0 L 1.546875 -13.671875 L 3 -13.671875 Z M 3 0 "/></g><g transform="translate(136.066402, 245.161287)"><path style="stroke:none;" d="M 3 0 L 1.546875 0 L 1.546875 -9.640625 L 3 -9.640625 Z M 1.421875 -12.25 C 1.421875 -12.582031 1.503906 -12.820312 1.671875 -12.96875 C 1.835938 -13.125 2.039062 -13.203125 2.28125 -13.203125 C 2.519531 -13.203125 2.722656 -13.125 2.890625 -12.96875 C 3.054688 -12.8125 3.140625 -12.570312 3.140625 -12.25 C 3.140625 -11.914062 3.054688 -11.664062 2.890625 -11.5 C 2.722656 -11.34375 2.519531 -11.265625 2.28125 -11.265625 C 2.039062 -11.265625 1.835938 -11.34375 1.671875 -11.5 C 1.503906 -11.664062 1.421875 -11.914062 1.421875 -12.25 Z M 1.421875 -12.25 "/></g><g transform="translate(140.619136, 245.161287)"><path style="stroke:none;" d="M 8.140625 0 L 8.140625 -6.234375 C 8.140625 -7.015625 7.957031 -7.597656 7.59375 -7.984375 C 7.238281 -8.367188 6.679688 -8.5625 5.921875 -8.5625 C 4.910156 -8.5625 4.171875 -8.289062 3.703125 -7.75 C 3.234375 -7.207031 3 -6.304688 3 -5.046875 L 3 0 L 1.546875 0 L 1.546875 -9.640625 L 2.734375 -9.640625 L 2.96875 -8.3125 L 3.046875 -8.3125 C 3.335938 -8.789062 3.753906 -9.160156 4.296875 -9.421875 C 4.835938 -9.679688 5.4375 -9.8125 6.09375 -9.8125 C 7.257812 -9.8125 8.132812 -9.53125 8.71875 -8.96875 C 9.300781 -8.40625 9.59375 -7.507812 9.59375 -6.28125 L 9.59375 0 Z M 8.140625 0 "/></g><g transform="translate(151.666987, 245.161287)"><path style="stroke:none;" d="M 8.109375 -1.296875 L 8.03125 -1.296875 C 7.351562 -0.316406 6.34375 0.171875 5 0.171875 C 3.738281 0.171875 2.757812 -0.253906 2.0625 -1.109375 C 1.363281 -1.972656 1.015625 -3.203125 1.015625 -4.796875 C 1.015625 -6.378906 1.363281 -7.609375 2.0625 -8.484375 C 2.769531 -9.367188 3.75 -9.8125 5 -9.8125 C 6.3125 -9.8125 7.3125 -9.335938 8 -8.390625 L 8.125 -8.390625 L 8.0625 -9.078125 L 8.03125 -9.75 L 8.03125 -13.671875 L 9.484375 -13.671875 L 9.484375 0 L 8.296875 0 Z M 5.1875 -1.046875 C 6.1875 -1.046875 6.910156 -1.316406 7.359375 -1.859375 C 7.804688 -2.398438 8.03125 -3.273438 8.03125 -4.484375 L 8.03125 -4.796875 C 8.03125 -6.160156 7.800781 -7.132812 7.34375 -7.71875 C 6.882812 -8.300781 6.160156 -8.59375 5.171875 -8.59375 C 4.316406 -8.59375 3.660156 -8.257812 3.203125 -7.59375 C 2.742188 -6.925781 2.515625 -5.984375 2.515625 -4.765625 C 2.515625 -3.535156 2.738281 -2.609375 3.1875 -1.984375 C 3.644531 -1.359375 4.3125 -1.046875 5.1875 -1.046875 Z M 5.1875 -1.046875 "/></g><g transform="translate(162.69726, 245.161287)"><path style="stroke:none;" d="M 5.9375 -9.8125 C 6.363281 -9.8125 6.75 -9.773438 7.09375 -9.703125 L 6.890625 -8.34375 C 6.492188 -8.4375 6.144531 -8.484375 5.84375 -8.484375 C 5.0625 -8.484375 4.390625 -8.164062 3.828125 -7.53125 C 3.273438 -6.894531 3 -6.109375 3 -5.171875 L 3 0 L 1.546875 0 L 1.546875 -9.640625 L 2.75 -9.640625 L 2.921875 -7.84375 L 2.984375 -7.84375 C 3.347656 -8.476562 3.78125 -8.960938 4.28125 -9.296875 C 4.78125 -9.640625 5.332031 -9.8125 5.9375 -9.8125 Z M 5.9375 -9.8125 "/></g><g transform="translate(170.044916, 245.161287)"><path style="stroke:none;" d="M 9.859375 -4.828125 C 9.859375 -3.253906 9.460938 -2.023438 8.671875 -1.140625 C 7.878906 -0.265625 6.785156 0.171875 5.390625 0.171875 C 4.535156 0.171875 3.769531 -0.0234375 3.09375 -0.421875 C 2.425781 -0.828125 1.910156 -1.410156 1.546875 -2.171875 C 1.191406 -2.929688 1.015625 -3.816406 1.015625 -4.828125 C 1.015625 -6.398438 1.40625 -7.625 2.1875 -8.5 C 2.96875 -9.375 4.054688 -9.8125 5.453125 -9.8125 C 6.804688 -9.8125 7.878906 -9.363281 8.671875 -8.46875 C 9.460938 -7.570312 9.859375 -6.359375 9.859375 -4.828125 Z M 2.515625 -4.828125 C 2.515625 -3.597656 2.757812 -2.660156 3.25 -2.015625 C 3.75 -1.367188 4.476562 -1.046875 5.4375 -1.046875 C 6.382812 -1.046875 7.101562 -1.363281 7.59375 -2 C 8.09375 -2.644531 8.34375 -3.585938 8.34375 -4.828125 C 8.34375 -6.046875 8.09375 -6.972656 7.59375 -7.609375 C 7.101562 -8.242188 6.378906 -8.5625 5.421875 -8.5625 C 4.460938 -8.5625 3.738281 -8.25 3.25 -7.625 C 2.757812 -7 2.515625 -6.066406 2.515625 -4.828125 Z M 2.515625 -4.828125 "/></g><g transform="translate(180.916985, 245.161287)"><path style="stroke:none;" d="M 13.828125 0 L 13.828125 -6.265625 C 13.828125 -7.035156 13.660156 -7.609375 13.328125 -7.984375 C 13.003906 -8.367188 12.492188 -8.5625 11.796875 -8.5625 C 10.890625 -8.5625 10.21875 -8.300781 9.78125 -7.78125 C 9.351562 -7.257812 9.140625 -6.457031 9.140625 -5.375 L 9.140625 0 L 7.6875 0 L 7.6875 -6.265625 C 7.6875 -7.035156 7.519531 -7.609375 7.1875 -7.984375 C 6.863281 -8.367188 6.351562 -8.5625 5.65625 -8.5625 C 4.738281 -8.5625 4.066406 -8.285156 3.640625 -7.734375 C 3.210938 -7.191406 3 -6.296875 3 -5.046875 L 3 0 L 1.546875 0 L 1.546875 -9.640625 L 2.734375 -9.640625 L 2.96875 -8.3125 L 3.046875 -8.3125 C 3.316406 -8.78125 3.703125 -9.144531 4.203125 -9.40625 C 4.703125 -9.675781 5.265625 -9.8125 5.890625 -9.8125 C 7.390625 -9.8125 8.375 -9.265625 8.84375 -8.171875 L 8.90625 -8.171875 C 9.195312 -8.679688 9.613281 -9.082031 10.15625 -9.375 C 10.707031 -9.664062 11.332031 -9.8125 12.03125 -9.8125 C 13.113281 -9.8125 13.925781 -9.53125 14.46875 -8.96875 C 15.007812 -8.40625 15.28125 -7.507812 15.28125 -6.28125 L 15.28125 0 Z M 13.828125 0 "/></g><g transform="translate(197.660148, 245.161287)"><path style="stroke:none;" d="M 5.609375 0.171875 C 4.191406 0.171875 3.070312 -0.257812 2.25 -1.125 C 1.425781 -1.988281 1.015625 -3.191406 1.015625 -4.734375 C 1.015625 -6.285156 1.394531 -7.519531 2.15625 -8.4375 C 2.925781 -9.351562 3.953125 -9.8125 5.234375 -9.8125 C 6.441406 -9.8125 7.394531 -9.410156 8.09375 -8.609375 C 8.800781 -7.816406 9.15625 -6.769531 9.15625 -5.46875 L 9.15625 -4.546875 L 2.515625 -4.546875 C 2.546875 -3.421875 2.832031 -2.5625 3.375 -1.96875 C 3.914062 -1.382812 4.679688 -1.09375 5.671875 -1.09375 C 6.703125 -1.09375 7.726562 -1.3125 8.75 -1.75 L 8.75 -0.453125 C 8.226562 -0.222656 7.738281 -0.0625 7.28125 0.03125 C 6.820312 0.125 6.265625 0.171875 5.609375 0.171875 Z M 5.21875 -8.59375 C 4.445312 -8.59375 3.832031 -8.335938 3.375 -7.828125 C 2.914062 -7.328125 2.644531 -6.628906 2.5625 -5.734375 L 7.59375 -5.734375 C 7.59375 -6.660156 7.382812 -7.367188 6.96875 -7.859375 C 6.5625 -8.347656 5.976562 -8.59375 5.21875 -8.59375 Z M 5.21875 -8.59375 "/></g><g transform="translate(207.75878, 245.161287)"><path style="stroke:none;" d=""/></g><g transform="translate(212.434561, 245.161287)"><path style="stroke:none;" d="M 7.265625 -11.703125 C 5.859375 -11.703125 4.742188 -11.226562 3.921875 -10.28125 C 3.109375 -9.34375 2.703125 -8.054688 2.703125 -6.421875 C 2.703125 -4.742188 3.09375 -3.445312 3.875 -2.53125 C 4.664062 -1.613281 5.789062 -1.15625 7.25 -1.15625 C 8.144531 -1.15625 9.164062 -1.316406 10.3125 -1.640625 L 10.3125 -0.328125 C 9.425781 0.00390625 8.328125 0.171875 7.015625 0.171875 C 5.128906 0.171875 3.671875 -0.398438 2.640625 -1.546875 C 1.609375 -2.691406 1.09375 -4.320312 1.09375 -6.4375 C 1.09375 -7.757812 1.335938 -8.921875 1.828125 -9.921875 C 2.328125 -10.921875 3.046875 -11.6875 3.984375 -12.21875 C 4.921875 -12.757812 6.019531 -13.03125 7.28125 -13.03125 C 8.632812 -13.03125 9.8125 -12.785156 10.8125 -12.296875 L 10.1875 -11.015625 C 9.21875 -11.472656 8.242188 -11.703125 7.265625 -11.703125 Z M 7.265625 -11.703125 "/></g><g transform="translate(223.79003, 245.161287)"><path style="stroke:none;" d="M 8.140625 0 L 8.140625 -6.234375 C 8.140625 -7.015625 7.957031 -7.597656 7.59375 -7.984375 C 7.238281 -8.367188 6.679688 -8.5625 5.921875 -8.5625 C 4.910156 -8.5625 4.171875 -8.285156 3.703125 -7.734375 C 3.234375 -7.191406 3 -6.289062 3 -5.03125 L 3 0 L 1.546875 0 L 1.546875 -13.671875 L 3 -13.671875 L 3 -9.53125 C 3 -9.039062 2.976562 -8.628906 2.9375 -8.296875 L 3.03125 -8.296875 C 3.3125 -8.753906 3.71875 -9.117188 4.25 -9.390625 C 4.78125 -9.660156 5.382812 -9.796875 6.0625 -9.796875 C 7.238281 -9.796875 8.117188 -9.515625 8.703125 -8.953125 C 9.296875 -8.390625 9.59375 -7.5 9.59375 -6.28125 L 9.59375 0 Z M 8.140625 0 "/></g><g transform="translate(234.83788, 245.161287)"><path style="stroke:none;" d="M 5.609375 0.171875 C 4.191406 0.171875 3.070312 -0.257812 2.25 -1.125 C 1.425781 -1.988281 1.015625 -3.191406 1.015625 -4.734375 C 1.015625 -6.285156 1.394531 -7.519531 2.15625 -8.4375 C 2.925781 -9.351562 3.953125 -9.8125 5.234375 -9.8125 C 6.441406 -9.8125 7.394531 -9.410156 8.09375 -8.609375 C 8.800781 -7.816406 9.15625 -6.769531 9.15625 -5.46875 L 9.15625 -4.546875 L 2.515625 -4.546875 C 2.546875 -3.421875 2.832031 -2.5625 3.375 -1.96875 C 3.914062 -1.382812 4.679688 -1.09375 5.671875 -1.09375 C 6.703125 -1.09375 7.726562 -1.3125 8.75 -1.75 L 8.75 -0.453125 C 8.226562 -0.222656 7.738281 -0.0625 7.28125 0.03125 C 6.820312 0.125 6.265625 0.171875 5.609375 0.171875 Z M 5.21875 -8.59375 C 4.445312 -8.59375 3.832031 -8.335938 3.375 -7.828125 C 2.914062 -7.328125 2.644531 -6.628906 2.5625 -5.734375 L 7.59375 -5.734375 C 7.59375 -6.660156 7.382812 -7.367188 6.96875 -7.859375 C 6.5625 -8.347656 5.976562 -8.59375 5.21875 -8.59375 Z M 5.21875 -8.59375 "/></g><g transform="translate(244.936513, 245.161287)"><path style="stroke:none;" d="M 5.390625 0.171875 C 4.003906 0.171875 2.925781 -0.253906 2.15625 -1.109375 C 1.394531 -1.972656 1.015625 -3.1875 1.015625 -4.75 C 1.015625 -6.363281 1.398438 -7.609375 2.171875 -8.484375 C 2.953125 -9.367188 4.0625 -9.8125 5.5 -9.8125 C 5.957031 -9.8125 6.414062 -9.757812 6.875 -9.65625 C 7.34375 -9.5625 7.707031 -9.445312 7.96875 -9.3125 L 7.53125 -8.0625 C 7.207031 -8.195312 6.851562 -8.304688 6.46875 -8.390625 C 6.082031 -8.472656 5.742188 -8.515625 5.453125 -8.515625 C 3.492188 -8.515625 2.515625 -7.265625 2.515625 -4.765625 C 2.515625 -3.585938 2.753906 -2.679688 3.234375 -2.046875 C 3.710938 -1.410156 4.421875 -1.09375 5.359375 -1.09375 C 6.160156 -1.09375 6.984375 -1.269531 7.828125 -1.625 L 7.828125 -0.328125 C 7.179688 0.00390625 6.367188 0.171875 5.390625 0.171875 Z M 5.390625 0.171875 "/></g><g transform="translate(253.505848, 245.161287)"><path style="stroke:none;" d="M 2.984375 -4.9375 C 3.234375 -5.289062 3.617188 -5.757812 4.140625 -6.34375 L 7.25 -9.640625 L 8.984375 -9.640625 L 5.078125 -5.53125 L 9.25 0 L 7.484375 0 L 4.09375 -4.546875 L 2.984375 -3.609375 L 2.984375 0 L 1.546875 0 L 1.546875 -13.671875 L 2.984375 -13.671875 L 2.984375 -6.421875 C 2.984375 -6.097656 2.960938 -5.601562 2.921875 -4.9375 Z M 2.984375 -4.9375 "/></g><g transform="translate(262.954089, 245.161287)"><path style="stroke:none;" d="M 5.609375 0.171875 C 4.191406 0.171875 3.070312 -0.257812 2.25 -1.125 C 1.425781 -1.988281 1.015625 -3.191406 1.015625 -4.734375 C 1.015625 -6.285156 1.394531 -7.519531 2.15625 -8.4375 C 2.925781 -9.351562 3.953125 -9.8125 5.234375 -9.8125 C 6.441406 -9.8125 7.394531 -9.410156 8.09375 -8.609375 C 8.800781 -7.816406 9.15625 -6.769531 9.15625 -5.46875 L 9.15625 -4.546875 L 2.515625 -4.546875 C 2.546875 -3.421875 2.832031 -2.5625 3.375 -1.96875 C 3.914062 -1.382812 4.679688 -1.09375 5.671875 -1.09375 C 6.703125 -1.09375 7.726562 -1.3125 8.75 -1.75 L 8.75 -0.453125 C 8.226562 -0.222656 7.738281 -0.0625 7.28125 0.03125 C 6.820312 0.125 6.265625 0.171875 5.609375 0.171875 Z M 5.21875 -8.59375 C 4.445312 -8.59375 3.832031 -8.335938 3.375 -7.828125 C 2.914062 -7.328125 2.644531 -6.628906 2.5625 -5.734375 L 7.59375 -5.734375 C 7.59375 -6.660156 7.382812 -7.367188 6.96875 -7.859375 C 6.5625 -8.347656 5.976562 -8.59375 5.21875 -8.59375 Z M 5.21875 -8.59375 "/></g><g transform="translate(273.052722, 245.161287)"><path style="stroke:none;" d="M 5.9375 -9.8125 C 6.363281 -9.8125 6.75 -9.773438 7.09375 -9.703125 L 6.890625 -8.34375 C 6.492188 -8.4375 6.144531 -8.484375 5.84375 -8.484375 C 5.0625 -8.484375 4.390625 -8.164062 3.828125 -7.53125 C 3.273438 -6.894531 3 -6.109375 3 -5.171875 L 3 0 L 1.546875 0 L 1.546875 -9.640625 L 2.75 -9.640625 L 2.921875 -7.84375 L 2.984375 -7.84375 C 3.347656 -8.476562 3.78125 -8.960938 4.28125 -9.296875 C 4.78125 -9.640625 5.332031 -9.8125 5.9375 -9.8125 Z M 5.9375 -9.8125 "/></g></g></g></svg>